# xmcd
#
# Track frame offsets:
#	150
#	11017
#	27465
#	44290
#	57357
#	74922
#	88147
#	107715
#	123517
#	144202
#	159645
#
# Disc length: 2332 seconds
#
# Revision: 2
# Processed by: cddbd v1.5.2PL0 Copyright (c) Steve Scherf et al.
# Submitted via: audiograbber 1.83.01
#
DISCID=9d091a0b
DTITLE=The Wild Cards - Cool Never Cold
DYEAR=1988
DGENRE=Blues
TTITLE0=House of Cards
TTITLE1=Wildest Dreams
TTITLE2=Tears Over Nothing
TTITLE3=Latin Thang
TTITLE4=The Girl Can't Help It
TTITLE5=Wake Up
TTITLE6=Cool Never Cold
TTITLE7=Too Much Too Soon
TTITLE8=Smiles
TTITLE9=Lost In The Shuffle
TTITLE10=Rebound
EXTD=
EXTT0=
EXTT1=
EXTT2=
EXTT3=
EXTT4=
EXTT5=
EXTT6=
EXTT7=
EXTT8=
EXTT9=
EXTT10=
PLAYORDER=
